<svg width="282" height="80" viewBox="0 0 282 80" fill="none" xmlns="http://www.w3.org/2000/svg">
<g clip-path="url(#clip0)">
<path d="M142.571 27.5199C141.929 27.0488 141.04 26.8123 139.904 26.8106C138.768 26.8088 137.874 27.1163 137.221 27.7332C136.56 28.3483 136.23 29.2372 136.232 30.3999C136.232 32.6879 137.436 33.831 139.843 33.8292C141.034 33.8292 141.945 33.5137 142.576 32.8826C143.207 32.2515 143.523 31.3154 143.525 30.0746C143.531 28.8443 143.212 27.9928 142.571 27.5199Z" fill="#11EEBB"/>
<path d="M175.848 21.2534L128.683 20.5948C128.27 20.5929 127.861 20.6737 127.479 20.8323C127.098 20.9909 126.753 21.2242 126.463 21.5184C126.173 21.8126 125.945 22.1618 125.792 22.5454C125.64 22.929 125.565 23.3393 125.573 23.7521L125.723 37.4561C125.724 37.9073 125.901 38.3402 126.217 38.6625C126.533 38.9848 126.962 39.171 127.413 39.1814L175.307 39.9121C175.76 39.9144 176.196 39.7389 176.522 39.4234C176.847 39.1078 177.036 38.6773 177.048 38.2241L177.541 23.0561C177.55 22.8261 177.513 22.5967 177.433 22.3811C177.352 22.1655 177.229 21.9681 177.072 21.8004C176.914 21.6326 176.725 21.4979 176.515 21.404C176.305 21.3101 176.078 21.2589 175.848 21.2534ZM148.363 35.7948C146.219 37.1956 143.285 37.8952 139.563 37.8935C135.84 37.8917 133.002 37.2419 131.048 35.9441C129.084 34.6428 128.1 32.8525 128.099 30.5734C128.099 28.033 129.146 26.0774 131.24 24.7068C133.334 23.3361 136.234 22.6543 139.939 22.6614C143.645 22.6614 146.51 23.2935 148.533 24.5575C150.556 25.8215 151.567 27.6099 151.565 29.9228C151.574 32.4366 150.507 34.3939 148.363 35.7948ZM174.269 32.9068L174.24 35.1708L174.261 36.8268C174.117 36.8535 173.624 36.9121 172.773 37.0001C171.923 37.0881 170.107 37.3895 167.291 37.8935L159.733 31.2268C159.637 34.8677 159.589 36.8632 159.589 37.2134V37.3228C159.246 37.3228 158.311 37.3592 156.784 37.4321C155.257 37.505 154.082 37.5388 153.259 37.5334C153.293 37.0481 153.309 36.4454 153.309 35.7308C153.309 35.0161 153.365 33.5974 153.477 31.4828C153.589 29.3681 153.645 27.7708 153.645 26.6988V23.1681L162.664 22.9788C162.739 23.0641 163.405 23.7974 164.664 25.1788C165.923 26.5601 167.096 27.8579 168.184 29.0721V24.6828C168.196 23.9343 168.217 23.401 168.245 23.0828L174.291 23.0134L174.312 27.8908C174.312 29.0943 174.298 30.7663 174.269 32.9068Z" fill="#11EEBB"/>
<path d="M178.733 30.6186C178.733 27.8399 179.83 25.6888 182.024 24.1652C184.653 22.3341 188.332 21.4186 193.059 21.4186C193.822 21.416 194.585 21.4551 195.344 21.5359V27.1359C194.232 26.989 193.111 26.9177 191.989 26.9226C190.931 26.879 189.887 27.1824 189.016 27.7866C188.237 28.3661 187.849 29.2826 187.851 30.5359C187.851 33.1866 189.268 34.5128 192.101 34.5146C193.192 34.4697 194.277 34.3305 195.344 34.0986V39.2959C194.251 39.4165 193.153 39.4762 192.053 39.4746C186.251 39.4746 182.284 38.0852 180.152 35.3066C179.206 34.0835 178.733 32.5208 178.733 30.6186Z" fill="white"/>
<path d="M211.866 21.9039L213.2 21.9278L220.376 21.7385L219.949 30.4639L219.699 38.9305L211.197 39.0852C211.197 37.7039 211.252 35.9554 211.363 33.8399H205.04L204.733 38.9305L196.562 39.1572C196.562 37.8008 196.598 36.1465 196.669 34.1945L196.917 27.5278C196.917 27.2825 196.976 26.3545 197.072 24.7385C197.168 23.1225 197.218 22.1679 197.226 21.8665C198.457 21.7972 201.168 21.7617 205.36 21.7599H205.586L205.136 27.7999H211.507L211.866 21.9039Z" fill="white"/>
<path d="M228.643 36.9067L227.755 39.1334C227.358 39.1885 226.958 39.2161 226.557 39.2161C226.163 39.2161 224.142 39.1272 220.496 38.9494C221.403 37.049 223.928 31.4045 228.072 22.0161C228.57 22.0036 229.681 21.9583 231.405 21.8801C233.13 21.8018 234.632 21.7645 235.912 21.7681C237.192 21.7681 238.072 21.8472 238.552 22.0054C238.6 22.1618 240.672 27.001 244.768 36.5227L245.763 38.8427C240.744 39.1521 238.185 39.3058 238.085 39.3041C237.987 39.3041 237.475 39.2827 236.552 39.2347C236.168 38.5239 235.863 37.7738 235.64 36.9974C235.133 36.9369 232.801 36.9067 228.643 36.9067ZM234.171 32.5601C233.312 29.7903 232.748 27.8925 232.477 26.8667C232.035 28.2569 231.596 29.512 231.163 30.632C230.731 31.752 230.48 32.3947 230.419 32.5601H234.171Z" fill="white"/>
<path d="M253.653 21.8214L255.715 21.7974C255.747 22.0046 255.763 22.2142 255.763 22.4241L255.701 24.0241L255.381 38.8507L253.12 38.9094L246.928 38.968C246.902 38.6772 246.89 38.3853 246.893 38.0934L247.296 21.9894C249.04 21.8774 251.159 21.8214 253.653 21.8214Z" fill="white"/>
<path d="M257.296 22.0106L267.824 21.7866C267.909 21.888 268.686 22.7582 270.155 24.3973C271.623 26.0364 272.993 27.5777 274.264 29.0213V23.8106C274.28 22.9199 274.304 22.2826 274.336 21.9039L281.392 21.8213L281.416 27.6106C281.416 29.0328 281.4 31.0186 281.368 33.5679L281.333 36.256L281.357 38.2213C281.192 38.2533 280.613 38.3226 279.621 38.4293C278.629 38.5359 276.496 38.8915 273.221 39.4959L264.4 31.5866C264.292 35.9031 264.236 38.2711 264.235 38.6906V38.8213C263.831 38.8213 262.74 38.8648 260.96 38.952C259.18 39.0391 257.809 39.0782 256.845 39.0693C256.884 38.4933 256.905 37.7822 256.907 36.9359C256.908 36.0897 256.973 34.408 257.101 31.8906C257.231 29.3751 257.296 27.4826 257.296 26.2133V22.0106Z" fill="white"/>
<path d="M154.123 58.3946L146.616 58.5386C146.308 55.472 146.123 53.352 146.059 52.1786L145.952 50.2719L140.955 58.176C138.894 58.176 137.716 58.168 137.419 58.152C135.808 54.9662 134.612 52.5039 133.832 50.7653L132.952 58.4773C132.138 58.504 130.964 58.5164 129.432 58.5146C127.9 58.5129 126.365 58.4684 124.829 58.3813L124.984 56.3413C125.114 55.0133 125.408 49.928 125.867 41.0853H125.925C129.481 41.0853 132.491 41.0453 134.955 40.9653L135.389 41.8933L139.277 49.0266L144.032 40.8799L152.88 40.856C152.937 41.7093 153.19 45.2337 153.64 51.4293L154.037 56.9093L154.123 58.3946Z" fill="white"/>
<path d="M154.691 50.1147C154.691 47.0391 155.935 44.6773 158.424 43.0293C160.913 41.3813 164.364 40.5565 168.776 40.5547C173.183 40.5547 176.591 41.3191 179 42.848C181.409 44.3769 182.612 46.5413 182.608 49.3413C182.608 52.376 181.332 54.7396 178.781 56.432C176.23 58.1244 172.746 58.9716 168.328 58.9733C163.912 58.9733 160.534 58.1867 158.195 56.6133C155.855 55.04 154.687 52.8738 154.691 50.1147ZM168.656 54.072C170.078 54.072 171.163 53.6898 171.909 52.9254C172.656 52.1609 173.032 51.0284 173.037 49.528C173.037 48.0258 172.655 46.9902 171.891 46.4214C171.126 45.8525 170.073 45.5662 168.731 45.5627C167.387 45.5627 166.32 45.9351 165.531 46.68C164.741 47.4249 164.349 48.5049 164.355 49.92C164.351 52.688 165.785 54.072 168.656 54.072Z" fill="white"/>
<path d="M183.917 41.1573L194.645 40.928C194.736 41.0311 195.529 41.92 197.024 43.5946C198.519 45.2693 199.915 46.8409 201.213 48.3093V42.9973C201.229 42.0871 201.253 41.4391 201.285 41.0533L208.485 40.9707L208.509 46.872C208.509 48.328 208.493 50.352 208.461 52.944L208.424 55.6827L208.448 57.688C208.279 57.72 207.69 57.7902 206.68 57.8986C205.67 58.0071 203.495 58.3626 200.155 58.9653L191.163 50.9013C191.051 55.3049 190.995 57.7191 190.995 58.144V58.2773C190.584 58.2773 189.471 58.3218 187.656 58.4107C185.841 58.4995 184.443 58.5395 183.464 58.5306C183.505 57.944 183.524 57.2178 183.523 56.352C183.521 55.4862 183.587 53.7724 183.723 51.2107C183.856 48.6489 183.923 46.72 183.923 45.424L183.917 41.1573Z" fill="white"/>
<path d="M218.125 40.9281H219.296C219.398 41.6113 219.446 42.3015 219.44 42.9922C219.44 43.7655 219.408 44.6695 219.344 45.7095C219.28 46.7495 219.243 47.4028 219.235 47.6748L224.245 41.3522L225.029 40.4348C227.829 41.4393 230.742 42.417 233.768 43.3681V43.4535C232.803 44.4828 231.632 45.6855 230.256 47.0615C228.88 48.4375 227.971 49.3513 227.528 49.8028L235.445 56.0055L228.747 58.7708L227.467 59.4215L225.379 57.7068C224.333 56.8304 223.145 55.7886 221.813 54.5815C220.482 53.3744 219.579 52.5211 219.104 52.0215L218.909 57.5255V58.3708C214.724 58.4988 211.759 58.5637 210.013 58.5655C209.965 57.8721 209.941 57.321 209.941 56.9122L210.184 48.9122C210.353 45.2979 210.437 43.2019 210.437 42.6242C210.432 42.1485 210.456 41.6729 210.509 41.2001C210.865 41.1521 211.979 41.0953 213.853 41.0295C215.727 40.9637 217.151 40.9299 218.125 40.9281ZM233.768 43.3681V43.3308L233.816 43.3681H233.768Z" fill="white"/>
<path d="M257.043 58.5387H249.352L235.557 58.4428L235.763 54.1947C236.173 45.6721 236.379 41.3023 236.379 41.0854C237.344 41.0463 237.975 41.0259 238.272 41.0241H250.483C253.195 41.0241 255.388 41.0081 257.061 40.9761L256.565 45.5281C254.619 45.7058 250.74 45.7947 244.931 45.7947C244.907 45.9894 244.88 46.3281 244.851 46.7734C244.821 47.2187 244.803 47.5734 244.787 47.8107C247.098 47.7699 248.715 47.7503 249.637 47.7521L252.304 47.8241C252.283 48.4381 252.229 49.0506 252.141 49.6588C252.066 50.3378 251.947 51.0112 251.784 51.6747C251.656 51.7067 250.654 51.7228 248.779 51.7228H244.64L244.507 54.0747L257.181 54.2214C257.181 55.7414 257.159 56.8259 257.115 57.4748C257.064 58.1174 257.043 58.4748 257.043 58.5387Z" fill="white"/>
<path d="M272.835 40.9999C272.979 40.975 274.445 40.9635 277.235 40.9653C280.024 40.967 281.418 40.9866 281.416 41.024C281.402 41.0993 281.369 41.1699 281.32 41.2293L281.139 41.5333L273.584 51.6666L273.269 58.3333L271.592 58.4053L264.76 58.5519C264.673 58.0026 264.628 55.8977 264.627 52.2373L257.384 41.0373L266.269 40.8213L269.563 45.7226L272.835 40.9999Z" fill="white"/>
<path d="M93.3333 26.6774C92.5917 26.6785 91.8514 26.7409 91.12 26.8641C88.3877 19.0198 83.2821 12.2202 76.5112 7.40848C69.7403 2.59672 61.6398 0.0112715 53.3333 0.0107434C45.028 0.00869329 36.9281 2.59192 30.1574 7.40195C23.3868 12.212 18.2812 19.0103 15.5493 26.8534C14.8171 26.7304 14.0759 26.6679 13.3333 26.6667C9.79711 26.6667 6.40569 28.0715 3.90521 30.572C1.40472 33.0725 0 36.4638 0 40.0001C0 43.5363 1.40472 46.9277 3.90521 49.4282C6.40569 51.9286 9.79711 53.3334 13.3333 53.3334C14.0758 53.3331 14.817 53.2716 15.5493 53.1494C18.2781 60.996 23.3823 67.7984 30.1533 72.6119C36.9242 77.4255 45.0258 80.0114 53.3333 80.0107C61.6401 80.0128 69.7414 77.4286 76.5127 72.6171C83.284 67.8055 88.3893 61.0052 91.12 53.1601C91.8514 53.2823 92.5918 53.3439 93.3333 53.3441C96.8696 53.3441 100.261 51.9393 102.761 49.4388C105.262 46.9384 106.667 43.547 106.667 40.0107C106.667 36.4745 105.262 33.0831 102.761 30.5827C100.261 28.0822 96.8696 26.6774 93.3333 26.6774ZM13.6827 45.3174C13.5653 45.3174 13.448 45.3334 13.328 45.3334C11.9135 45.3334 10.557 44.7715 9.55677 43.7713C8.55658 42.7711 7.99466 41.4146 7.99466 40.0001C7.99466 38.5856 8.55658 37.229 9.55677 36.2288C10.557 35.2286 11.9135 34.6667 13.328 34.6667C13.448 34.6667 13.5653 34.6668 13.6827 34.6854C13.4471 36.4472 13.3286 38.2226 13.328 40.0001C13.3285 41.7784 13.447 43.5548 13.6827 45.3174ZM53.3333 72.0107C44.8464 72.0107 36.7072 68.6393 30.706 62.6382C24.7048 56.637 21.3333 48.4977 21.3333 40.0107C21.3333 31.5238 24.7048 23.3845 30.706 17.3833C36.7072 11.3822 44.8464 8.01074 53.3333 8.01074C61.8203 8.01074 69.9596 11.3822 75.9607 17.3833C81.9619 23.3845 85.3333 31.5238 85.3333 40.0107C85.3333 48.4977 81.9619 56.637 75.9607 62.6382C69.9596 68.6393 61.8203 72.0107 53.3333 72.0107ZM93.3333 45.3441C93.216 45.3441 93.0987 45.3441 92.9814 45.3281C93.2162 43.5654 93.3337 41.789 93.3333 40.0107C93.3337 38.2334 93.2161 36.4579 92.9814 34.6961C93.0987 34.6961 93.216 34.6774 93.3333 34.6774C94.7478 34.6774 96.1044 35.2393 97.1046 36.2395C98.1048 37.2397 98.6667 38.5963 98.6667 40.0107C98.6667 41.4252 98.1048 42.7818 97.1046 43.782C96.1044 44.7822 94.7478 45.3441 93.3333 45.3441ZM66.6667 33.8774C66.1716 33.8774 65.6968 33.6807 65.3467 33.3307C64.9967 32.9806 64.8 32.5058 64.8 32.0107H68.5333C68.5333 32.5058 68.3367 32.9806 67.9866 33.3307C67.6365 33.6807 67.1617 33.8774 66.6667 33.8774ZM38.1333 32.0107H41.8667C41.8667 32.5058 41.67 32.9806 41.3199 33.3307C40.9699 33.6807 40.4951 33.8774 40 33.8774C39.5049 33.8774 39.0301 33.6807 38.6801 33.3307C38.33 32.9806 38.1333 32.5058 38.1333 32.0107ZM76.2481 32.0107C76.2614 32.1894 76.2667 32.3654 76.2667 32.5441C76.2667 34.7365 75.3957 36.8392 73.8454 38.3895C72.2951 39.9398 70.1925 40.8107 68 40.8107C65.8075 40.8107 63.7049 39.9398 62.1546 38.3895C60.6043 36.8392 59.7333 34.7365 59.7333 32.5441C59.7333 32.3654 59.7334 32.1894 59.7547 32.0107H61.3333C61.3333 33.4252 61.8953 34.7818 62.8954 35.782C63.8956 36.7822 65.2522 37.3441 66.6667 37.3441C68.0812 37.3441 69.4377 36.7822 70.4379 35.782C71.4381 34.7818 72 33.4252 72 32.0107H76.2481ZM30.7654 32.0107H34.6667C34.6667 33.4252 35.2286 34.7818 36.2288 35.782C37.229 36.7822 38.5855 37.3441 40 37.3441C41.4145 37.3441 42.771 36.7822 43.7712 35.782C44.7714 34.7818 45.3333 33.4252 45.3333 32.0107H49.2374C48.9168 34.232 47.8064 36.2634 46.1099 37.7327C44.4134 39.2019 42.2443 40.0107 40 40.0107C37.7562 40.01 35.5877 39.201 33.8918 37.7318C32.1958 36.2626 31.0859 34.2316 30.7654 32.0107ZM49.3333 28.0107H29.3333V24.0107H49.3333V28.0107ZM60 24.0107H77.3333V28.0107H60V24.0107ZM53.3333 48.2774C40.9627 48.2774 30.9333 52.3387 30.9333 57.3441C30.9333 62.3494 40.9627 66.4107 53.3333 66.4107C65.704 66.4107 75.7333 62.3521 75.7333 57.3441C75.7333 52.3361 65.7067 48.2774 53.3333 48.2774ZM58.1333 50.6774C58.487 50.6774 58.8261 50.8179 59.0762 51.0679C59.3262 51.318 59.4667 51.6571 59.4667 52.0107C59.4667 52.3644 59.3262 52.7035 59.0762 52.9536C58.8261 53.2036 58.487 53.3441 58.1333 53.3441C57.7797 53.3441 57.4405 53.2036 57.1905 52.9536C56.9404 52.7035 56.8 52.3644 56.8 52.0107C56.8 51.6571 56.9404 51.318 57.1905 51.0679C57.4405 50.8179 57.7797 50.6774 58.1333 50.6774ZM48.5333 50.6774C48.887 50.6774 49.2261 50.8179 49.4762 51.0679C49.7262 51.318 49.8667 51.6571 49.8667 52.0107C49.8667 52.3644 49.7262 52.7035 49.4762 52.9536C49.2261 53.2036 48.887 53.3441 48.5333 53.3441C48.1797 53.3441 47.8405 53.2036 47.5905 52.9536C47.3405 52.7035 47.2 52.3644 47.2 52.0107C47.2 51.6571 47.3405 51.318 47.5905 51.0679C47.8405 50.8179 48.1797 50.6774 48.5333 50.6774ZM68 62.1441H38.6667V61.3441H68V62.1441Z" fill="white"/>
</g>
<defs>
<clipPath id="clip0">
<rect width="281.416" height="80" fill="white"/>
</clipPath>
</defs>
</svg>
